<?xml version="1.0" encoding="utf-8"?>
<svg viewBox="0 0 500 500" xmlns="http://www.w3.org/2000/svg">
  <path style="fill: rgb(89, 174, 198);" d="M 256.274 38.399 C 282.307 111.624 252.001 173.194 209.655 224.97 C 194.19 199.749 182.648 171.879 182.648 146.258 C 167.33 158.643 76.298 210.974 76.298 304.453 C 76.298 383.879 157.732 448.266 248.094 448.266 C 370.805 448.266 428.07 383.879 428.07 304.453 C 428.069 131.877 284.325 57.268 256.274 38.399 Z" transform="matrix(0.9999999999999999, 0, 0, 0.9999999999999999, -2.842170943040401e-14, -1.4210854715202004e-14)"/>
  <path style="fill: rgb(78, 114, 166);" d="M 117.2 304.454 C 117.2 243.777 155.552 200.444 186.658 174.112 C 184.1 164.69 182.646 155.332 182.646 146.259 C 167.328 158.644 76.296 210.975 76.296 304.454 C 76.296 383.88 157.73 448.267 248.092 448.267 C 256.134 448.267 263.887 447.984 271.368 447.444 C 188.313 439.756 117.2 378.675 117.2 304.454 Z" transform="matrix(0.9999999999999999, 0, 0, 0.9999999999999999, -2.842170943040401e-14, -1.4210854715202004e-14)"/>
  <path d="M 380.166 135.377 C 377.846 132.262 373.093 131.39 369.549 133.43 C 366.005 135.47 365.013 139.647 367.334 142.762 C 402.546 190.031 420.399 244.431 420.399 304.454 C 420.399 390.283 355.986 441.526 248.092 441.526 C 159.126 441.526 83.966 378.754 83.966 304.454 C 83.966 228.277 147.566 180.042 175.919 159.852 C 178.722 180.57 187.764 203.48 202.902 228.169 C 205.542 232.475 212.629 232.879 215.88 228.905 C 240.834 198.393 257.231 169.802 266.005 141.5 C 274.913 112.763 275.924 83.68 269.054 54.799 C 287.892 66.79 316.419 86.202 343.542 114.635 C 346.262 117.488 351.101 117.861 354.345 115.47 C 357.592 113.078 358.017 108.826 355.295 105.974 C 322.561 71.658 288.156 50.158 269.672 38.609 C 266.146 36.404 263.098 34.502 260.934 33.046 C 258.223 31.221 254.352 31.217 251.633 33.032 C 249.088 34.731 247.999 37.73 248.953 40.41 C 269.068 96.989 256.915 151.731 210.66 211.92 C 197.319 187.789 190.316 165.261 190.316 146.259 C 190.316 142.444 186.462 139.413 182.177 139.57 C 179.896 139.653 178.298 140.664 176.644 141.934 C 174.449 143.62 172.152 145.207 169.88 146.814 C 142.188 166.399 68.628 218.42 68.628 304.455 C 68.628 344.341 87.963 382.203 123.07 411.069 C 157.034 438.994 202.603 455.01 248.093 455.01 C 307.743 455.01 356.647 439.763 389.517 410.917 C 419.756 384.38 435.739 347.566 435.739 304.455 C 435.738 241.763 417.042 184.878 380.166 135.377 Z" style="" transform="matrix(0.9999999999999999, 0, 0, 0.9999999999999999, -2.842170943040401e-14, -1.4210854715202004e-14)"/>
</svg>